<svg width="80" height="26" viewBox="0 0 80 26" fill="none" xmlns="http://www.w3.org/2000/svg">
<g clip-path="url(#clip0_1511_11113)">
<path d="M22.0643 25.4536C21.8499 25.4558 21.6374 25.4147 21.4395 25.3328C21.2417 25.2508 21.0628 25.1297 20.9137 24.9769C20.7606 24.8284 20.6391 24.6508 20.5566 24.4547C20.474 24.2586 20.432 24.0481 20.4331 23.8356V12.0048C20.4331 9.656 19.6211 7.72479 17.9513 6.10153C17.1821 5.30416 16.2558 4.67227 15.2299 4.24516C14.204 3.81805 13.1005 3.60484 11.988 3.6188C10.8711 3.61 9.76385 3.82541 8.73301 4.25207C7.70216 4.67874 6.76897 5.30784 5.98958 6.10153C5.19325 6.8657 4.56362 7.78396 4.13973 8.79941C3.71583 9.81487 3.50671 10.9059 3.52532 12.0048V23.8182C3.52754 24.0308 3.48608 24.2417 3.40345 24.4379C3.32083 24.6342 3.19878 24.8116 3.04475 24.9595C2.89497 25.1114 2.71593 25.2319 2.51827 25.3138C2.32062 25.3957 2.10838 25.4373 1.89417 25.4362C1.67981 25.4384 1.46724 25.3973 1.26942 25.3154C1.07161 25.2334 0.892698 25.1123 0.743599 24.9595C0.590461 24.811 0.469003 24.6334 0.386445 24.4373C0.303887 24.2412 0.261915 24.0307 0.263024 23.8182V1.98336C0.260802 1.77072 0.302267 1.55985 0.384891 1.36363C0.467515 1.16741 0.589565 0.989932 0.743599 0.842032C0.893376 0.690124 1.07242 0.569642 1.27007 0.487747C1.46773 0.405853 1.67997 0.364218 1.89417 0.365318C2.10854 0.363114 2.32111 0.404246 2.51892 0.486206C2.71674 0.568165 2.89565 0.689235 3.04475 0.842032C3.19788 0.990605 3.31934 1.16821 3.4019 1.36427C3.48446 1.56034 3.52643 1.77088 3.52532 1.98336V3.92153C6.13867 1.5658 8.98879 0.365318 11.9792 0.365318C15.2187 0.365318 18.0022 1.51535 20.2525 3.78408C21.3663 4.84969 22.2481 6.13052 22.8432 7.54744C23.4384 8.96437 23.7344 10.4873 23.713 12.0222V23.8356C23.7152 24.0482 23.6737 24.2591 23.5911 24.4553C23.5085 24.6516 23.3864 24.829 23.2324 24.9769C23.0791 25.129 22.8969 25.2494 22.6964 25.3312C22.4959 25.413 22.2811 25.4546 22.0643 25.4536Z" fill="white"/>
<path d="M40.0334 25.7382C37.9955 25.7242 35.9925 25.2121 34.2016 24.2472C32.719 23.4948 31.4075 22.4491 30.3478 21.1748C29.2881 19.9004 28.5027 18.4242 28.0401 16.8373C27.5283 15.2668 27.3442 13.6095 27.4989 11.9661C27.6536 10.3228 28.1439 8.72796 28.9398 7.27863C29.6989 5.80742 30.7538 4.50607 32.0395 3.45487C33.3252 2.40367 34.8143 1.62491 36.4151 1.16661C37.6446 0.785933 38.9243 0.588914 40.2123 0.582031C42.2526 0.594832 44.2582 1.10699 46.0511 2.07306C47.534 2.82529 48.8459 3.87083 49.9059 5.14523C50.9659 6.41963 51.7516 7.89589 52.2144 9.483C52.28 9.68683 52.3043 9.90152 52.2859 10.1147C52.2676 10.3279 52.2069 10.5354 52.1074 10.7252C52.0109 10.9169 51.8748 11.0862 51.708 11.2223C51.5412 11.3584 51.3474 11.4582 51.1393 11.5151L31.7461 17.4218C32.7652 19.186 34.1087 20.5187 35.7451 21.3869C37.0745 22.1069 38.5626 22.49 40.0773 22.5021C41.0268 22.4972 41.97 22.3494 42.8748 22.0637C43.9423 21.7514 44.9428 21.2472 45.8266 20.5761C46.6749 19.9223 47.402 19.1269 47.9752 18.2256C48.1774 17.9066 48.4887 17.6707 48.8521 17.561C49.0109 17.5138 49.1757 17.4892 49.3415 17.4879C49.6096 17.4888 49.8735 17.5552 50.1097 17.6811C50.3033 17.7806 50.474 17.9189 50.6111 18.0872C50.7481 18.2555 50.8485 18.4501 50.906 18.6589C51.0309 19.049 51.0078 19.471 50.8411 19.8454V19.8628L50.8306 19.8785C49.2438 22.4384 46.7526 24.3203 43.8429 25.1571C42.6093 25.5378 41.3253 25.7337 40.0334 25.7382ZM40.193 3.85465C39.2435 3.85955 38.3003 4.00738 37.3955 4.29309C36.2104 4.63418 35.1085 5.21266 34.1576 5.99279C33.2067 6.77292 32.4272 7.73813 31.8671 8.82882C31.0025 10.4625 30.6394 12.3085 30.7973 14.3302L48.4908 8.93669C47.5866 7.25982 46.2075 5.88209 44.5235 4.97336C43.1949 4.25244 41.7073 3.86816 40.193 3.85465Z" fill="white"/>
<path d="M66.7368 25.5938C63.3504 25.5938 60.1027 24.2593 57.7081 21.884C55.3135 19.5087 53.9683 16.287 53.9683 12.9278C53.9683 9.56859 55.3135 6.34696 57.7081 3.97163C60.1027 1.5963 63.3504 0.261858 66.7368 0.261858C68.633 0.252959 70.5067 0.669291 72.2178 1.47974C72.4364 1.58046 72.6324 1.72367 72.7942 1.90088C72.956 2.0781 73.0803 2.28573 73.1597 2.51146C73.285 2.85354 73.3043 3.22497 73.2152 3.57803C73.1261 3.9311 72.9326 4.24967 72.6596 4.49281C72.3865 4.73596 72.0465 4.89258 71.683 4.94255C71.3196 4.99252 70.9494 4.93356 70.62 4.77323C68.8423 3.93546 66.8384 3.6932 64.9099 4.08291C62.9814 4.47262 61.2327 5.47321 59.9271 6.93406C58.6215 8.3949 57.8296 10.2369 57.6706 12.1828C57.5117 14.1288 57.9943 16.0732 59.0458 17.7235C60.0973 19.3738 61.6607 20.6406 63.5008 21.3333C65.3409 22.0259 67.358 22.1068 69.2485 21.5639C71.1389 21.0209 72.8004 19.8835 73.9829 18.3228C75.1653 16.7622 75.8046 14.8627 75.8046 12.9104C75.8046 11.8944 75.759 11.3881 75.5012 10.5703C75.3523 10.1089 75.3943 9.60772 75.618 9.17703C75.8417 8.74634 76.2287 8.42143 76.6938 8.27377C77.159 8.12611 77.6643 8.1678 78.0984 8.38968C78.5326 8.61155 78.8602 8.99542 79.009 9.45685C79.4054 10.7078 79.4773 11.5951 79.4773 12.8948C79.4856 14.5591 79.1625 16.2087 78.5264 17.7488C77.8902 19.2889 76.9537 20.6892 75.7706 21.8693C74.5874 23.0494 73.181 23.9861 71.6319 24.6255C70.0828 25.265 68.4217 25.5946 66.7438 25.5955L66.7368 25.5938Z" fill="white"/>
<path d="M75.3485 7.60301C74.9669 7.60301 74.5939 7.49077 74.2766 7.28048C73.9594 7.07019 73.7121 6.77129 73.566 6.42159C73.42 6.07188 73.3818 5.68708 73.4563 5.31584C73.5307 4.94459 73.7145 4.60359 73.9843 4.33593C74.2541 4.06828 74.5979 3.88601 74.9721 3.81216C75.3464 3.73832 75.7343 3.77622 76.0868 3.92107C76.4394 4.06592 76.7407 4.31122 76.9527 4.62595C77.1647 4.94067 77.2778 5.31069 77.2778 5.6892C77.2778 6.19678 77.0746 6.68356 76.7127 7.04247C76.3509 7.40138 75.8602 7.60301 75.3485 7.60301Z" fill="white"/>
</g>
<defs>
<clipPath id="clip0_1511_11113">
<rect width="79.7333" height="26" fill="white"/>
</clipPath>
</defs>
</svg>
