<svg width="78" height="26" viewBox="0 0 78 26" fill="none" xmlns="http://www.w3.org/2000/svg">
<g clip-path="url(#clip0_1511_11118)">
<path d="M14.3413 26C10.9028 26 7.8709 25.1531 5.56732 23.544C2.85722 21.6469 1.23116 18.8182 0.756895 15.1257C0.418133 12.5511 3.83963 7.21564 4.75429 5.94528C4.29696 5.53876 3.51781 4.53941 3.29761 3.59088C3.12823 2.82866 3.33149 2.16808 3.87351 1.67687C3.99207 1.55831 5.19468 0.423453 7.71846 0.0169379C7.80315 -2.58707e-07 7.90478 0 7.98947 0C8.70087 0 9.03963 0.525081 9.22595 0.846906L9.31064 0.999349C9.53084 1.35505 9.97123 2.03257 10.0898 2.62541C10.8181 2.42215 12.7321 1.94788 15.2559 1.94788C17.4409 1.94788 19.5243 2.30358 21.4553 2.99805C21.6246 2.32052 22.1667 0.62671 23.166 0.220195C23.2507 0.186319 23.3693 0.169381 23.5048 0.169381C24.4364 0.169381 27.5191 1.05016 28.2983 2.7101C28.5354 3.21824 28.654 4.03127 27.8409 4.99674C27.1295 5.84365 26.6553 6.28404 26.3843 6.50423C26.9602 7.24951 28.8064 9.85798 29.0605 13.5336C29.5856 20.9355 25.9947 22.7309 23.8605 23.798C21.0657 25.2039 17.6103 26 14.3413 26Z" fill="white"/>
<path d="M23.9451 6.02944C16.9497 1.25289 9.66629 3.8783 7.29495 5.52129C4.58485 7.38448 2.89104 11.4327 2.56922 13.6855C2.36596 15.1591 1.92557 22.4933 12.2578 24.2379C13.9347 24.5259 23.1829 24.3395 26.5366 19.4614C27.3497 18.2926 28.5353 9.16299 23.9451 6.02944Z" fill="#1C1C73"/>
<path d="M15.1204 21.9184C13.9008 21.9184 12.4441 21.5288 10.8689 20.2923L11.6142 19.3608C13.2741 20.6819 14.9679 21.0546 16.6109 20.4787C17.8474 20.0552 18.6096 19.2422 18.6096 19.2422L19.4904 20.0552C19.4565 20.0891 18.5249 21.0884 17.0005 21.6135C16.4754 21.7829 15.8487 21.9184 15.1204 21.9184Z" fill="white"/>
<path d="M9.97106 18.2267L10.9196 19.531C11.0043 19.6495 10.8857 19.802 10.7502 19.7681L9.20885 19.2938C8.76846 19.1583 8.58214 18.6163 8.85315 18.2267C9.12416 17.8541 9.70005 17.8541 9.97106 18.2267Z" fill="white"/>
<path d="M9.192 20.0385L10.7672 19.6489C10.9027 19.6151 11.0044 19.7844 10.9197 19.8861L9.88646 21.1395C9.58158 21.4952 9.02262 21.4613 8.76855 21.0717C8.51448 20.6822 8.73467 20.1571 9.192 20.0385Z" fill="white"/>
<path d="M12.5965 20.2764L11.0382 19.8529C10.9027 19.819 10.8858 19.6158 11.0213 19.565L12.5288 18.9552C12.9692 18.7858 13.4434 19.0737 13.4773 19.548C13.4943 20.0223 13.0539 20.3949 12.5965 20.2764Z" fill="white"/>
<path d="M12.0205 18.3453L11.0889 19.6664C11.0042 19.785 10.8179 19.7342 10.8179 19.5817L10.7671 17.9557C10.7501 17.4814 11.2074 17.1427 11.6478 17.2782C12.1052 17.4137 12.2915 17.9557 12.0205 18.3453Z" fill="white"/>
<path d="M10.9196 21.4782L10.8518 19.869C10.8518 19.7166 11.0212 19.6488 11.1228 19.7674L12.156 21.0208C12.4609 21.3765 12.3085 21.9355 11.8681 22.1049C11.4108 22.2573 10.9365 21.9524 10.9196 21.4782Z" fill="white"/>
<path d="M11.5972 22.2574C11.4447 22.2574 11.2923 22.2065 11.1568 22.1219C10.9366 21.9694 10.8011 21.7492 10.7841 21.4782L10.7333 20.2925L9.97112 21.2241C9.80174 21.4274 9.5646 21.529 9.29359 21.5121C9.03952 21.4951 8.80239 21.3596 8.66688 21.1394C8.53138 20.9193 8.4975 20.6482 8.59913 20.4111C8.70076 20.174 8.90402 19.9877 9.15809 19.9199L10.0897 19.6828L9.17503 19.3948C8.92095 19.3101 8.73463 19.1238 8.64994 18.8867C8.56525 18.6326 8.59913 18.3785 8.75157 18.1583C8.90402 17.9381 9.14115 17.8196 9.41216 17.8196C9.68317 17.8196 9.9203 17.9381 10.0727 18.1583L10.6825 19.0052L10.6486 17.972C10.6486 17.701 10.7503 17.4639 10.9705 17.3114C11.1737 17.159 11.4447 17.1082 11.6988 17.1759C11.9529 17.2437 12.1392 17.43 12.2239 17.6841C12.3086 17.9381 12.2747 18.1922 12.1223 18.4124L11.5464 19.2424L12.478 18.8528C12.7151 18.7512 12.9861 18.785 13.2063 18.9206C13.4265 19.0561 13.562 19.2932 13.5789 19.5473C13.5959 19.8183 13.4942 20.0554 13.291 20.2248C13.0877 20.3942 12.8167 20.445 12.5626 20.3772L11.5464 20.1062L12.2239 20.9193C12.3933 21.1225 12.4441 21.3766 12.3763 21.6307C12.3086 21.8847 12.1392 22.088 11.8851 22.1727C11.8004 22.2404 11.6988 22.2574 11.5972 22.2574ZM10.8519 19.8521C10.8688 19.8521 10.8688 19.8521 10.8858 19.8521C10.9366 19.8691 10.9705 19.903 10.9705 19.9538L11.0382 21.4613C11.0552 21.6476 11.1398 21.817 11.2923 21.9186C11.4447 22.0202 11.6311 22.0372 11.8174 21.9694C11.9868 21.9017 12.1223 21.7662 12.1561 21.5798C12.2069 21.3935 12.1561 21.2241 12.0376 21.0717L11.1229 19.9707C11.089 19.9368 11.089 19.8691 11.106 19.8352C11.1398 19.7844 11.1907 19.7675 11.2415 19.7844L12.6135 20.1401C12.7998 20.1909 12.9861 20.1401 13.1216 20.0215C13.2571 19.903 13.3418 19.7336 13.3249 19.5473C13.3079 19.3609 13.2232 19.2085 13.0539 19.1069C12.9014 19.0052 12.7151 18.9883 12.5457 19.0561L11.2245 19.5981C11.1737 19.615 11.1229 19.5981 11.089 19.5642C11.0552 19.5303 11.0552 19.4626 11.089 19.4287L11.9021 18.2769C12.0037 18.1245 12.0376 17.9381 11.9698 17.7688C11.9021 17.5994 11.7666 17.4639 11.5972 17.4131C11.4278 17.3622 11.2415 17.3961 11.089 17.5147C10.9366 17.6333 10.8688 17.8026 10.8688 17.989L10.9197 19.4118C10.9197 19.4626 10.8858 19.5134 10.835 19.5303C10.7841 19.5473 10.7333 19.5303 10.6995 19.4795L9.86949 18.3277C9.76786 18.1753 9.59848 18.0906 9.41216 18.0906C9.22584 18.0906 9.05646 18.1753 8.95483 18.3277C8.8532 18.4802 8.81933 18.6665 8.87014 18.8359C8.92095 19.0052 9.05646 19.1407 9.24278 19.1916L10.564 19.5981C10.6148 19.615 10.6486 19.6658 10.6486 19.7166C10.6486 19.7675 10.6148 19.8183 10.564 19.8352L9.2089 20.174C9.02258 20.2248 8.88708 20.3434 8.81933 20.5127C8.75157 20.6821 8.76851 20.8684 8.87014 21.0378C8.97177 21.1903 9.12421 21.2919 9.31053 21.3088C9.49685 21.3258 9.66623 21.2411 9.7848 21.1056L10.7503 19.9368C10.7672 19.8691 10.8011 19.8521 10.8519 19.8521Z" fill="#1C1C73"/>
<path d="M20.8287 14.1428C21.6332 14.1428 22.2854 13.612 22.2854 12.9572C22.2854 12.3023 21.6332 11.7715 20.8287 11.7715C20.0242 11.7715 19.3721 12.3023 19.3721 12.9572C19.3721 13.612 20.0242 14.1428 20.8287 14.1428Z" fill="white"/>
<path d="M6.5498 13.0603L6.87163 14.2121C7.4814 13.416 10.2593 10.5874 12.1902 14.7711L12.7492 13.7717C12.7492 13.7887 10.7166 8.14829 6.5498 13.0603Z" fill="white"/>
<path d="M13.7993 16.7012H17.1531L15.4762 18.5135L13.7993 16.7012Z" fill="white"/>
<path d="M20.8289 16.5489C18.5591 16.5489 16.7129 14.9398 16.7129 12.9581C16.7129 10.9763 18.5591 9.36719 20.8289 9.36719C23.0986 9.36719 24.9448 10.9763 24.9448 12.9581C24.9448 14.9398 23.0986 16.5489 20.8289 16.5489ZM20.8289 10.5698C19.2197 10.5698 17.9155 11.6369 17.9155 12.9581C17.9155 14.2792 19.2197 15.3463 20.8289 15.3463C22.438 15.3463 23.7422 14.2792 23.7422 12.9581C23.7591 11.6369 22.438 10.5698 20.8289 10.5698Z" fill="white"/>
<path d="M52.0623 25.2897C51.6389 25.2897 51.2832 25.1372 50.9952 24.8662C50.7073 24.5783 50.5718 24.2226 50.5718 23.7991V12.9926C50.5718 10.8753 49.8096 9.06296 48.336 7.60628C46.8454 6.09879 45.033 5.33658 42.9327 5.33658C40.8493 5.33658 39.02 6.09879 37.5294 7.60628C36.0219 9.09684 35.2936 10.8584 35.2936 12.9926V23.7822C35.2936 24.2056 35.1412 24.5613 34.8702 24.8493C34.5822 25.1372 34.2265 25.2727 33.8031 25.2727C33.3796 25.2727 33.0239 25.1203 32.736 24.8493C32.448 24.5613 32.3125 24.2056 32.3125 23.7822V3.84602C32.3125 3.43951 32.4649 3.06687 32.736 2.77892C33.0239 2.49097 33.3796 2.35547 33.8031 2.35547C34.2265 2.35547 34.5822 2.50791 34.8702 2.77892C35.1581 3.06687 35.2936 3.42257 35.2936 3.84602V5.57371C37.6649 3.43951 40.2395 2.35547 42.9327 2.35547C45.863 2.35547 48.3868 3.40563 50.4532 5.47208C52.5366 7.53853 53.5868 10.0792 53.5868 13.0095V23.7991C53.5868 24.2395 53.4343 24.5783 53.1294 24.8662C52.8246 25.1542 52.4858 25.2897 52.0623 25.2897Z" fill="white"/>
<path d="M66.3921 25.0182C64.5966 25.0182 62.8351 24.5609 61.1413 23.6801C58.3634 22.2234 56.4664 19.9537 55.5178 16.9387C54.5862 13.9238 54.8572 10.9765 56.3139 8.19868C57.7706 5.42083 60.0403 3.52376 63.0553 2.57522C64.2409 2.21952 65.4097 2.0332 66.5445 2.0332C68.34 2.0332 70.1015 2.49053 71.7953 3.37131C74.5732 4.82799 76.4703 7.0977 77.4188 10.1127C77.5374 10.5361 77.5035 10.9088 77.3172 11.2645C77.1478 11.6202 76.8429 11.8742 76.4364 11.9928L58.9224 17.4469C59.854 19.056 61.0735 20.2586 62.5471 21.0208C63.8175 21.6814 65.1217 22.0202 66.4429 22.0202C67.2898 22.0202 68.1537 21.8847 69.0175 21.6137C70.0168 21.3088 70.9146 20.8514 71.6768 20.2586C72.439 19.6658 73.0996 18.9374 73.6247 18.1075C73.794 17.8195 74.0651 17.6163 74.4038 17.5146C74.5563 17.4638 74.7087 17.4469 74.8611 17.4469C75.0983 17.4469 75.3185 17.4977 75.5387 17.6163C75.9282 17.8365 76.1654 18.1244 76.2839 18.514C76.4025 18.9205 76.3856 19.2931 76.2162 19.615V19.6319V19.6488C74.7256 22.0371 72.6084 23.6801 69.9152 24.5101C68.6957 24.8319 67.5269 25.0182 66.3921 25.0182ZM66.4937 5.03125C65.6468 5.03125 64.783 5.16675 63.9191 5.43776C61.7172 6.11529 60.0403 7.52115 58.9393 9.60454C58.1602 11.0782 57.8553 12.7212 57.9908 14.6013L73.9973 9.62148C73.0996 8.01236 71.88 6.80975 70.3895 6.0306C69.1191 5.35307 67.8149 5.03125 66.4937 5.03125Z" fill="white"/>
</g>
<defs>
<clipPath id="clip0_1511_11118">
<rect width="77" height="26" fill="white" transform="translate(0.733398)"/>
</clipPath>
</defs>
</svg>
